<?xml version="1.0" encoding="iso-8859-1"?>
<!-- Generator: Adobe Illustrator 19.0.0, SVG Export Plug-In . SVG Version: 6.00 Build 0)  -->
<svg version="1.1" id="Layer_1" xmlns="http://www.w3.org/2000/svg" xmlns:xlink="http://www.w3.org/1999/xlink" x="0px" y="0px"
	 viewBox="0 0 512 512" style="enable-background:new 0 0 512 512;" xml:space="preserve">
<polygon style="fill:#41D4D3;" points="116.114,468.039 79.777,504.377 55.544,456.455 68.182,443.818 "/>
<polygon style="fill:#FFAABD;" points="175.985,408.168 139.648,444.505 115.416,396.584 128.064,383.936 "/>
<polygon style="fill:#00BAB9;" points="43.96,395.886 68.182,443.818 55.544,456.455 7.623,432.223 "/>
<polygon style="fill:#FE7F9C;" points="103.832,336.015 128.064,383.936 115.416,396.584 67.494,372.352 "/>
<polygon style="fill:#FFAABD;" points="512,277.296 175.298,336.702 373.357,138.654 "/>
<polygon style="fill:#FE7F9C;" points="512,0 512,277.296 373.357,138.654 "/>
<polygon style="fill:#FCE190;" points="373.357,138.654 175.298,336.702 234.703,0 "/>
<polygon style="fill:#FFB354;" points="512,0 373.357,138.654 234.703,0 "/>
<path style="fill:#FE547B;" d="M177.818,322.425L2.435,497.808c-3.247,3.247-3.247,8.511,0,11.757
	C4.059,511.187,6.186,512,8.315,512c2.127,0,4.256-0.811,5.88-2.435l175.382-175.382L177.818,322.425z"/>
<g>
</g>
<g>
</g>
<g>
</g>
<g>
</g>
<g>
</g>
<g>
</g>
<g>
</g>
<g>
</g>
<g>
</g>
<g>
</g>
<g>
</g>
<g>
</g>
<g>
</g>
<g>
</g>
<g>
</g>
</svg>
